<svg xmlns="http://www.w3.org/2000/svg" version="1.1" xmlns:xlink="http://www.w3.org/1999/xlink" xmlns:svgjs="http://svgjs.dev/svgjs" width="1440" height="560" preserveAspectRatio="none" viewBox="0 0 1440 560">
    <g mask="url(&quot;#SvgjsMask1000&quot;)" fill="none">
        <rect width="1440" height="560" x="0" y="0" fill="#0e2a47"></rect>
        <path d="M-43 379.33L-43 379.33" stroke="#132e65" stroke-width="1.5"></path>
        <path d="M-43 379.33L77 377.01" stroke="#132e65" stroke-width="1.5"></path>
        <path d="M-43 379.33L-92.95 498.3" stroke="#132e65" stroke-width="1.5"></path>
        <path d="M-92.95 498.3L-92.95 498.3" stroke="#132e65" stroke-width="1.5"></path>
        <path d="M-92.95 498.3L38.45 514.53" stroke="#132e65" stroke-width="1.5"></path>
        <path d="M77 377.01L77 377.01" stroke="#132e65" stroke-width="1.5"></path>
        <path d="M77 377.01L188.33 403.76" stroke="#132e65" stroke-width="1.5"></path>
        <path d="M38.45 514.53L38.45 514.53" stroke="#132e65" stroke-width="1.5"></path>
        <path d="M38.45 514.53L57.77 640.44" stroke="#132e65" stroke-width="1.5"></path>
        <path d="M38.45 514.53L77 377.01" stroke="#132e65" stroke-width="1.5"></path>
        <path d="M38.45 514.53L-43 379.33" stroke="#132e65" stroke-width="1.5"></path>
        <path d="M38.45 514.53L188.33 403.76" stroke="#132e65" stroke-width="1.5"></path>
        <path d="M57.77 640.44L57.77 640.44" stroke="#132e65" stroke-width="1.5"></path>
        <path d="M57.77 640.44L205.45 639.31" stroke="#132e65" stroke-width="1.5"></path>
        <path d="M57.77 640.44L-92.95 498.3" stroke="#132e65" stroke-width="1.5"></path>
        <path d="M188.33 403.76L188.33 403.76" stroke="#132e65" stroke-width="1.5"></path>
        <path d="M188.33 403.76L249.27 526.19" stroke="#132e65" stroke-width="1.5"></path>
        <path d="M188.33 403.76L374.22 385.52" stroke="#132e65" stroke-width="1.5"></path>
        <path d="M188.33 403.76L352.34 539.97" stroke="#132e65" stroke-width="1.5"></path>
        <path d="M188.33 403.76L-43 379.33" stroke="#132e65" stroke-width="1.5"></path>
        <path d="M249.27 526.19L249.27 526.19" stroke="#132e65" stroke-width="1.5"></path>
        <path d="M249.27 526.19L352.34 539.97" stroke="#132e65" stroke-width="1.5"></path>
        <path d="M249.27 526.19L205.45 639.31" stroke="#132e65" stroke-width="1.5"></path>
        <path d="M249.27 526.19L363.73 646.55" stroke="#132e65" stroke-width="1.5"></path>
        <path d="M249.27 526.19L374.22 385.52" stroke="#132e65" stroke-width="1.5"></path>
        <path d="M205.45 639.31L205.45 639.31" stroke="#132e65" stroke-width="1.5"></path>
        <path d="M374.22 385.52L374.22 385.52" stroke="#132e65" stroke-width="1.5"></path>
        <path d="M374.22 385.52L507.3 341.82" stroke="#132e65" stroke-width="1.5"></path>
        <path d="M374.22 385.52L352.34 539.97" stroke="#132e65" stroke-width="1.5"></path>
        <path d="M352.34 539.97L352.34 539.97" stroke="#132e65" stroke-width="1.5"></path>
        <path d="M363.73 646.55L363.73 646.55" stroke="#132e65" stroke-width="1.5"></path>
        <path d="M363.73 646.55L352.34 539.97" stroke="#132e65" stroke-width="1.5"></path>
        <path d="M363.73 646.55L205.45 639.31" stroke="#132e65" stroke-width="1.5"></path>
        <path d="M507.3 341.82L507.3 341.82" stroke="#132e65" stroke-width="1.5"></path>
        <path d="M507.3 341.82L659.32 362.28" stroke="#132e65" stroke-width="1.5"></path>
        <path d="M507.3 341.82L528.36 518.61" stroke="#132e65" stroke-width="1.5"></path>
        <path d="M507.3 341.82L352.34 539.97" stroke="#132e65" stroke-width="1.5"></path>
        <path d="M507.3 341.82L684.45 548.3" stroke="#132e65" stroke-width="1.5"></path>
        <path d="M528.36 518.61L528.36 518.61" stroke="#132e65" stroke-width="1.5"></path>
        <path d="M528.36 518.61L684.45 548.3" stroke="#132e65" stroke-width="1.5"></path>
        <path d="M528.36 518.61L352.34 539.97" stroke="#132e65" stroke-width="1.5"></path>
        <path d="M528.36 518.61L533.61 703.81" stroke="#132e65" stroke-width="1.5"></path>
        <path d="M528.36 518.61L374.22 385.52" stroke="#132e65" stroke-width="1.5"></path>
        <path d="M533.61 703.81L533.61 703.81" stroke="#132e65" stroke-width="1.5"></path>
        <path d="M533.61 703.81L694.09 696.67" stroke="#132e65" stroke-width="1.5"></path>
        <path d="M533.61 703.81L363.73 646.55" stroke="#132e65" stroke-width="1.5"></path>
        <path d="M533.61 703.81L684.45 548.3" stroke="#132e65" stroke-width="1.5"></path>
        <path d="M533.61 703.81L352.34 539.97" stroke="#132e65" stroke-width="1.5"></path>
        <path d="M533.61 703.81L846.48 664.97" stroke="#132e65" stroke-width="1.5"></path>
        <path d="M659.32 362.28L659.32 362.28" stroke="#132e65" stroke-width="1.5"></path>
        <path d="M659.32 362.28L830.95 347.13" stroke="#132e65" stroke-width="1.5"></path>
        <path d="M659.32 362.28L806.95 252.31" stroke="#132e65" stroke-width="1.5"></path>
        <path d="M659.32 362.28L684.45 548.3" stroke="#132e65" stroke-width="1.5"></path>
        <path d="M684.45 548.3L684.45 548.3" stroke="#132e65" stroke-width="1.5"></path>
        <path d="M684.45 548.3L694.09 696.67" stroke="#132e65" stroke-width="1.5"></path>
        <path d="M684.45 548.3L837.96 561.53" stroke="#132e65" stroke-width="1.5"></path>
        <path d="M694.09 696.67L694.09 696.67" stroke="#132e65" stroke-width="1.5"></path>
        <path d="M694.09 696.67L846.48 664.97" stroke="#132e65" stroke-width="1.5"></path>
        <path d="M694.09 696.67L837.96 561.53" stroke="#132e65" stroke-width="1.5"></path>
        <path d="M806.95 252.31L806.95 252.31" stroke="#132e65" stroke-width="1.5"></path>
        <path d="M806.95 252.31L830.95 347.13" stroke="#132e65" stroke-width="1.5"></path>
        <path d="M806.95 252.31L973.06 235.42" stroke="#132e65" stroke-width="1.5"></path>
        <path d="M806.95 252.31L995.79 355.11" stroke="#132e65" stroke-width="1.5"></path>
        <path d="M806.95 252.31L976.37 66.03" stroke="#132e65" stroke-width="1.5"></path>
        <path d="M806.95 252.31L837.96 561.53" stroke="#132e65" stroke-width="1.5"></path>
        <path d="M830.95 347.13L830.95 347.13" stroke="#132e65" stroke-width="1.5"></path>
        <path d="M830.95 347.13L995.79 355.11" stroke="#132e65" stroke-width="1.5"></path>
        <path d="M837.96 561.53L837.96 561.53" stroke="#132e65" stroke-width="1.5"></path>
        <path d="M837.96 561.53L846.48 664.97" stroke="#132e65" stroke-width="1.5"></path>
        <path d="M837.96 561.53L974.21 530.24" stroke="#132e65" stroke-width="1.5"></path>
        <path d="M846.48 664.97L846.48 664.97" stroke="#132e65" stroke-width="1.5"></path>
        <path d="M846.48 664.97L944.77 689.61" stroke="#132e65" stroke-width="1.5"></path>
        <path d="M846.48 664.97L974.21 530.24" stroke="#132e65" stroke-width="1.5"></path>
        <path d="M985.3 -54.35L985.3 -54.35" stroke="#132e65" stroke-width="1.5"></path>
        <path d="M985.3 -54.35L976.37 66.03" stroke="#132e65" stroke-width="1.5"></path>
        <path d="M985.3 -54.35L1093.07 -111.47" stroke="#132e65" stroke-width="1.5"></path>
        <path d="M985.3 -54.35L1134.05 98.64" stroke="#132e65" stroke-width="1.5"></path>
        <path d="M985.3 -54.35L973.06 235.42" stroke="#132e65" stroke-width="1.5"></path>
        <path d="M985.3 -54.35L1266.31 47.7" stroke="#132e65" stroke-width="1.5"></path>
        <path d="M976.37 66.03L976.37 66.03" stroke="#132e65" stroke-width="1.5"></path>
        <path d="M976.37 66.03L1134.05 98.64" stroke="#132e65" stroke-width="1.5"></path>
        <path d="M976.37 66.03L973.06 235.42" stroke="#132e65" stroke-width="1.5"></path>
        <path d="M976.37 66.03L1093.07 -111.47" stroke="#132e65" stroke-width="1.5"></path>
        <path d="M973.06 235.42L973.06 235.42" stroke="#132e65" stroke-width="1.5"></path>
        <path d="M973.06 235.42L995.79 355.11" stroke="#132e65" stroke-width="1.5"></path>
        <path d="M973.06 235.42L830.95 347.13" stroke="#132e65" stroke-width="1.5"></path>
        <path d="M973.06 235.42L1134.05 98.64" stroke="#132e65" stroke-width="1.5"></path>
        <path d="M973.06 235.42L1136.84 383.94" stroke="#132e65" stroke-width="1.5"></path>
        <path d="M995.79 355.11L995.79 355.11" stroke="#132e65" stroke-width="1.5"></path>
        <path d="M995.79 355.11L1136.84 383.94" stroke="#132e65" stroke-width="1.5"></path>
        <path d="M995.79 355.11L974.21 530.24" stroke="#132e65" stroke-width="1.5"></path>
        <path d="M995.79 355.11L1149.48 487.86" stroke="#132e65" stroke-width="1.5"></path>
        <path d="M974.21 530.24L974.21 530.24" stroke="#132e65" stroke-width="1.5"></path>
        <path d="M974.21 530.24L944.77 689.61" stroke="#132e65" stroke-width="1.5"></path>
        <path d="M974.21 530.24L1149.48 487.86" stroke="#132e65" stroke-width="1.5"></path>
        <path d="M974.21 530.24L1138.14 650.07" stroke="#132e65" stroke-width="1.5"></path>
        <path d="M944.77 689.61L944.77 689.61" stroke="#132e65" stroke-width="1.5"></path>
        <path d="M1093.07 -111.47L1093.07 -111.47" stroke="#132e65" stroke-width="1.5"></path>
        <path d="M1134.05 98.64L1134.05 98.64" stroke="#132e65" stroke-width="1.5"></path>
        <path d="M1134.05 98.64L1266.31 47.7" stroke="#132e65" stroke-width="1.5"></path>
        <path d="M1134.05 98.64L1260.67 197.44" stroke="#132e65" stroke-width="1.5"></path>
        <path d="M1134.05 98.64L1093.07 -111.47" stroke="#132e65" stroke-width="1.5"></path>
        <path d="M1136.84 383.94L1136.84 383.94" stroke="#132e65" stroke-width="1.5"></path>
        <path d="M1136.84 383.94L1149.48 487.86" stroke="#132e65" stroke-width="1.5"></path>
        <path d="M1149.48 487.86L1149.48 487.86" stroke="#132e65" stroke-width="1.5"></path>
        <path d="M1149.48 487.86L1287.06 489.82" stroke="#132e65" stroke-width="1.5"></path>
        <path d="M1149.48 487.86L1138.14 650.07" stroke="#132e65" stroke-width="1.5"></path>
        <path d="M1138.14 650.07L1138.14 650.07" stroke="#132e65" stroke-width="1.5"></path>
        <path d="M1138.14 650.07L1249.35 679.78" stroke="#132e65" stroke-width="1.5"></path>
        <path d="M1138.14 650.07L944.77 689.61" stroke="#132e65" stroke-width="1.5"></path>
        <path d="M1138.14 650.07L1287.06 489.82" stroke="#132e65" stroke-width="1.5"></path>
        <path d="M1308.24 -82.55L1308.24 -82.55" stroke="#132e65" stroke-width="1.5"></path>
        <path d="M1308.24 -82.55L1266.31 47.7" stroke="#132e65" stroke-width="1.5"></path>
        <path d="M1308.24 -82.55L1412.65 55.66" stroke="#132e65" stroke-width="1.5"></path>
        <path d="M1308.24 -82.55L1093.07 -111.47" stroke="#132e65" stroke-width="1.5"></path>
        <path d="M1308.24 -82.55L1547.06 -49.03" stroke="#132e65" stroke-width="1.5"></path>
        <path d="M1308.24 -82.55L1134.05 98.64" stroke="#132e65" stroke-width="1.5"></path>
        <path d="M1266.31 47.7L1266.31 47.7" stroke="#132e65" stroke-width="1.5"></path>
        <path d="M1266.31 47.7L1412.65 55.66" stroke="#132e65" stroke-width="1.5"></path>
        <path d="M1266.31 47.7L1260.67 197.44" stroke="#132e65" stroke-width="1.5"></path>
        <path d="M1260.67 197.44L1260.67 197.44" stroke="#132e65" stroke-width="1.5"></path>
        <path d="M1260.67 197.44L1403.76 228.51" stroke="#132e65" stroke-width="1.5"></path>
        <path d="M1260.67 197.44L1296.56 352.29" stroke="#132e65" stroke-width="1.5"></path>
        <path d="M1296.56 352.29L1296.56 352.29" stroke="#132e65" stroke-width="1.5"></path>
        <path d="M1296.56 352.29L1428.51 383.32" stroke="#132e65" stroke-width="1.5"></path>
        <path d="M1296.56 352.29L1287.06 489.82" stroke="#132e65" stroke-width="1.5"></path>
        <path d="M1287.06 489.82L1287.06 489.82" stroke="#132e65" stroke-width="1.5"></path>
        <path d="M1287.06 489.82L1425.53 523.85" stroke="#132e65" stroke-width="1.5"></path>
        <path d="M1287.06 489.82L1428.51 383.32" stroke="#132e65" stroke-width="1.5"></path>
        <path d="M1287.06 489.82L1136.84 383.94" stroke="#132e65" stroke-width="1.5"></path>
        <path d="M1249.35 679.78L1249.35 679.78" stroke="#132e65" stroke-width="1.5"></path>
        <path d="M1249.35 679.78L1389.6 666.23" stroke="#132e65" stroke-width="1.5"></path>
        <path d="M1249.35 679.78L1287.06 489.82" stroke="#132e65" stroke-width="1.5"></path>
        <path d="M1412.65 55.66L1412.65 55.66" stroke="#132e65" stroke-width="1.5"></path>
        <path d="M1412.65 55.66L1538.63 46.36" stroke="#132e65" stroke-width="1.5"></path>
        <path d="M1412.65 55.66L1547.06 -49.03" stroke="#132e65" stroke-width="1.5"></path>
        <path d="M1412.65 55.66L1403.76 228.51" stroke="#132e65" stroke-width="1.5"></path>
        <path d="M1403.76 228.51L1403.76 228.51" stroke="#132e65" stroke-width="1.5"></path>
        <path d="M1403.76 228.51L1428.51 383.32" stroke="#132e65" stroke-width="1.5"></path>
        <path d="M1428.51 383.32L1428.51 383.32" stroke="#132e65" stroke-width="1.5"></path>
        <path d="M1428.51 383.32L1425.53 523.85" stroke="#132e65" stroke-width="1.5"></path>
        <path d="M1428.51 383.32L1570.33 359.61" stroke="#132e65" stroke-width="1.5"></path>
        <path d="M1425.53 523.85L1425.53 523.85" stroke="#132e65" stroke-width="1.5"></path>
        <path d="M1389.6 666.23L1389.6 666.23" stroke="#132e65" stroke-width="1.5"></path>
        <path d="M1389.6 666.23L1425.53 523.85" stroke="#132e65" stroke-width="1.5"></path>
        <path d="M1389.6 666.23L1287.06 489.82" stroke="#132e65" stroke-width="1.5"></path>
        <path d="M1389.6 666.23L1612.32 671.68" stroke="#132e65" stroke-width="1.5"></path>
        <path d="M1389.6 666.23L1138.14 650.07" stroke="#132e65" stroke-width="1.5"></path>
        <path d="M1547.06 -49.03L1547.06 -49.03" stroke="#132e65" stroke-width="1.5"></path>
        <path d="M1547.06 -49.03L1538.63 46.36" stroke="#132e65" stroke-width="1.5"></path>
        <path d="M1547.06 -49.03L1568.26 237.4" stroke="#132e65" stroke-width="1.5"></path>
        <path d="M1547.06 -49.03L1266.31 47.7" stroke="#132e65" stroke-width="1.5"></path>
        <path d="M1547.06 -49.03L1403.76 228.51" stroke="#132e65" stroke-width="1.5"></path>
        <path d="M1538.63 46.36L1538.63 46.36" stroke="#132e65" stroke-width="1.5"></path>
        <path d="M1538.63 46.36L1568.26 237.4" stroke="#132e65" stroke-width="1.5"></path>
        <path d="M1538.63 46.36L1403.76 228.51" stroke="#132e65" stroke-width="1.5"></path>
        <path d="M1538.63 46.36L1308.24 -82.55" stroke="#132e65" stroke-width="1.5"></path>
        <path d="M1538.63 46.36L1266.31 47.7" stroke="#132e65" stroke-width="1.5"></path>
        <path d="M1568.26 237.4L1568.26 237.4" stroke="#132e65" stroke-width="1.5"></path>
        <path d="M1568.26 237.4L1570.33 359.61" stroke="#132e65" stroke-width="1.5"></path>
        <path d="M1568.26 237.4L1403.76 228.51" stroke="#132e65" stroke-width="1.5"></path>
        <path d="M1568.26 237.4L1428.51 383.32" stroke="#132e65" stroke-width="1.5"></path>
        <path d="M1570.33 359.61L1570.33 359.61" stroke="#132e65" stroke-width="1.5"></path>
        <path d="M1570.33 359.61L1587.24 502.53" stroke="#132e65" stroke-width="1.5"></path>
        <path d="M1570.33 359.61L1403.76 228.51" stroke="#132e65" stroke-width="1.5"></path>
        <path d="M1570.33 359.61L1425.53 523.85" stroke="#132e65" stroke-width="1.5"></path>
        <path d="M1587.24 502.53L1587.24 502.53" stroke="#132e65" stroke-width="1.5"></path>
        <path d="M1587.24 502.53L1425.53 523.85" stroke="#132e65" stroke-width="1.5"></path>
        <path d="M1587.24 502.53L1612.32 671.68" stroke="#132e65" stroke-width="1.5"></path>
        <path d="M1587.24 502.53L1428.51 383.32" stroke="#132e65" stroke-width="1.5"></path>
        <path d="M1612.32 671.68L1612.32 671.68" stroke="#132e65" stroke-width="1.5"></path>
        <path d="M1612.32 671.68L1425.53 523.85" stroke="#132e65" stroke-width="1.5"></path>
        <path d="M1612.32 671.68L1570.33 359.61" stroke="#132e65" stroke-width="1.5"></path>
        <circle r="5" cx="-43" cy="379.33" fill="#132e65"></circle>
        <circle r="5" cx="-92.95" cy="498.3" fill="#132e65"></circle>
        <circle r="5" cx="77" cy="377.01" fill="#132e65"></circle>
        <circle r="5" cx="38.45" cy="514.53" fill="#132e65"></circle>
        <circle r="5" cx="57.77" cy="640.44" fill="#132e65"></circle>
        <circle r="5" cx="188.33" cy="403.76" fill="#132e65"></circle>
        <circle r="5" cx="249.27" cy="526.19" fill="#132e65"></circle>
        <circle r="5" cx="205.45" cy="639.31" fill="#132e65"></circle>
        <circle r="5" cx="374.22" cy="385.52" fill="#132e65"></circle>
        <circle r="5" cx="352.34" cy="539.97" fill="#132e65"></circle>
        <circle r="5" cx="363.73" cy="646.55" fill="#132e65"></circle>
        <circle r="5" cx="507.3" cy="341.82" fill="#132e65"></circle>
        <circle r="5" cx="528.36" cy="518.61" fill="#132e65"></circle>
        <circle r="5" cx="533.61" cy="703.81" fill="#132e65"></circle>
        <circle r="5" cx="659.32" cy="362.28" fill="#132e65"></circle>
        <circle r="5" cx="684.45" cy="548.3" fill="#132e65"></circle>
        <circle r="5" cx="694.09" cy="696.67" fill="#132e65"></circle>
        <circle r="5" cx="806.95" cy="252.31" fill="#132e65"></circle>
        <circle r="5" cx="830.95" cy="347.13" fill="#132e65"></circle>
        <circle r="5" cx="837.96" cy="561.53" fill="#132e65"></circle>
        <circle r="5" cx="846.48" cy="664.97" fill="#132e65"></circle>
        <circle r="5" cx="985.3" cy="-54.35" fill="#132e65"></circle>
        <circle r="5" cx="976.37" cy="66.03" fill="#132e65"></circle>
        <circle r="5" cx="973.06" cy="235.42" fill="#132e65"></circle>
        <circle r="5" cx="995.79" cy="355.11" fill="#132e65"></circle>
        <circle r="5" cx="974.21" cy="530.24" fill="#132e65"></circle>
        <circle r="5" cx="944.77" cy="689.61" fill="#132e65"></circle>
        <circle r="5" cx="1093.07" cy="-111.47" fill="#132e65"></circle>
        <circle r="5" cx="1134.05" cy="98.64" fill="#132e65"></circle>
        <circle r="5" cx="1136.84" cy="383.94" fill="#132e65"></circle>
        <circle r="5" cx="1149.48" cy="487.86" fill="#132e65"></circle>
        <circle r="5" cx="1138.14" cy="650.07" fill="#132e65"></circle>
        <circle r="5" cx="1308.24" cy="-82.55" fill="#132e65"></circle>
        <circle r="5" cx="1266.31" cy="47.7" fill="#132e65"></circle>
        <circle r="5" cx="1260.67" cy="197.44" fill="#132e65"></circle>
        <circle r="5" cx="1296.56" cy="352.29" fill="#132e65"></circle>
        <circle r="5" cx="1287.06" cy="489.82" fill="#132e65"></circle>
        <circle r="5" cx="1249.35" cy="679.78" fill="#132e65"></circle>
        <circle r="5" cx="1412.65" cy="55.66" fill="#132e65"></circle>
        <circle r="5" cx="1403.76" cy="228.51" fill="#132e65"></circle>
        <circle r="5" cx="1428.51" cy="383.32" fill="#132e65"></circle>
        <circle r="5" cx="1425.53" cy="523.85" fill="#132e65"></circle>
        <circle r="5" cx="1389.6" cy="666.23" fill="#132e65"></circle>
        <circle r="5" cx="1547.06" cy="-49.03" fill="#132e65"></circle>
        <circle r="5" cx="1538.63" cy="46.36" fill="#132e65"></circle>
        <circle r="5" cx="1568.26" cy="237.4" fill="#132e65"></circle>
        <circle r="5" cx="1570.33" cy="359.61" fill="#132e65"></circle>
        <circle r="5" cx="1587.24" cy="502.53" fill="#132e65"></circle>
        <circle r="5" cx="1612.32" cy="671.68" fill="#132e65"></circle>
        <path d="M692.03 645.89L692.03 645.89" stroke="hsl(228.5, 77.2%, 51.5%)" stroke-width="1.5"></path>
        <path d="M692.03 645.89L664.78 530.74" stroke="hsl(228.5, 77.2%, 51.5%)" stroke-width="1.5"></path>
        <path d="M692.03 645.89L843.33 639.42" stroke="hsl(228.5, 77.2%, 51.5%)" stroke-width="1.5"></path>
        <path d="M692.03 645.89L550.35 542.51" stroke="hsl(228.5, 77.2%, 51.5%)" stroke-width="1.5"></path>
        <path d="M993.84 488.85L993.84 488.85" stroke="hsl(228.5, 77.2%, 51.5%)" stroke-width="1.5"></path>
        <path d="M993.84 488.85L979.75 411.33" stroke="hsl(228.5, 77.2%, 51.5%)" stroke-width="1.5"></path>
        <path d="M993.84 488.85L1091.7 498.45" stroke="hsl(228.5, 77.2%, 51.5%)" stroke-width="1.5"></path>
        <path d="M993.84 488.85L1101.9 400.97" stroke="hsl(228.5, 77.2%, 51.5%)" stroke-width="1.5"></path>
        <path d="M1101.9 400.97L1101.9 400.97" stroke="hsl(228.5, 77.2%, 51.5%)" stroke-width="1.5"></path>
        <path d="M1101.9 400.97L1091.7 498.45" stroke="hsl(228.5, 77.2%, 51.5%)" stroke-width="1.5"></path>
        <path d="M1101.9 400.97L979.75 411.33" stroke="hsl(228.5, 77.2%, 51.5%)" stroke-width="1.5"></path>
        <path d="M1091.7 498.45L1091.7 498.45" stroke="hsl(228.5, 77.2%, 51.5%)" stroke-width="1.5"></path>
        <path d="M1091.7 498.45L979.75 411.33" stroke="hsl(228.5, 77.2%, 51.5%)" stroke-width="1.5"></path>
        <path d="M1091.7 498.45L1245.21 505.92" stroke="hsl(228.5, 77.2%, 51.5%)" stroke-width="1.5"></path>
        <path d="M1091.7 498.45L982.39 653.56" stroke="hsl(228.5, 77.2%, 51.5%)" stroke-width="1.5"></path>
        <path d="M1091.7 498.45L1242.31 357.49" stroke="hsl(228.5, 77.2%, 51.5%)" stroke-width="1.5"></path>
        <path d="M1245.21 505.92L1245.21 505.92" stroke="hsl(228.5, 77.2%, 51.5%)" stroke-width="1.5"></path>
        <path d="M1245.21 505.92L1253.06 644.28" stroke="hsl(228.5, 77.2%, 51.5%)" stroke-width="1.5"></path>
        <path d="M1245.21 505.92L1242.31 357.49" stroke="hsl(228.5, 77.2%, 51.5%)" stroke-width="1.5"></path>
        <path d="M1400.87 504.77L1400.87 504.77" stroke="hsl(228.5, 77.2%, 51.5%)" stroke-width="1.5"></path>
        <path d="M1400.87 504.77L1439.38 362.74" stroke="hsl(228.5, 77.2%, 51.5%)" stroke-width="1.5"></path>
        <path d="M1400.87 504.77L1544.29 560.65" stroke="hsl(228.5, 77.2%, 51.5%)" stroke-width="1.5"></path>
        <path d="M1400.87 504.77L1245.21 505.92" stroke="hsl(228.5, 77.2%, 51.5%)" stroke-width="1.5"></path>
        <path d="M1599.48 -72.08L1599.48 -72.08" stroke="hsl(228.5, 77.2%, 51.5%)" stroke-width="1.5"></path>
        <path d="M1599.48 -72.08L1568.6 84.95" stroke="hsl(228.5, 77.2%, 51.5%)" stroke-width="1.5"></path>
        <path d="M1599.48 -72.08L1441.46 69.66" stroke="hsl(228.5, 77.2%, 51.5%)" stroke-width="1.5"></path>
        <path d="M1599.48 -72.08L1456.56 190.04" stroke="hsl(228.5, 77.2%, 51.5%)" stroke-width="1.5"></path>
        <path d="M1599.48 -72.08L1552.11 241.94" stroke="hsl(228.5, 77.2%, 51.5%)" stroke-width="1.5"></path>
        <path d="M1544.29 560.65L1544.29 560.65" stroke="hsl(228.5, 77.2%, 51.5%)" stroke-width="1.5"></path>
        <path d="M1544.29 560.65L1586.76 670.33" stroke="hsl(228.5, 77.2%, 51.5%)" stroke-width="1.5"></path>
        <path d="M-94.45 516.4L-94.45 516.4" stroke="hsl(228.5, 77.2%, 51.5%)" stroke-width="1.5"></path>
        <path d="M-94.45 516.4L-54.09 684.13" stroke="hsl(228.5, 77.2%, 51.5%)" stroke-width="1.5"></path>
        <path d="M-94.45 516.4L90.83 530.86" stroke="hsl(228.5, 77.2%, 51.5%)" stroke-width="1.5"></path>
        <path d="M-94.45 516.4L105.55 700.52" stroke="hsl(228.5, 77.2%, 51.5%)" stroke-width="1.5"></path>
        <path d="M-94.45 516.4L215.33 524.02" stroke="hsl(228.5, 77.2%, 51.5%)" stroke-width="1.5"></path>
        <path d="M-54.09 684.13L-54.09 684.13" stroke="hsl(228.5, 77.2%, 51.5%)" stroke-width="1.5"></path>
        <path d="M-54.09 684.13L105.55 700.52" stroke="hsl(228.5, 77.2%, 51.5%)" stroke-width="1.5"></path>
        <path d="M-54.09 684.13L90.83 530.86" stroke="hsl(228.5, 77.2%, 51.5%)" stroke-width="1.5"></path>
        <path d="M-54.09 684.13L211.59 668.08" stroke="hsl(228.5, 77.2%, 51.5%)" stroke-width="1.5"></path>
        <path d="M-54.09 684.13L215.33 524.02" stroke="hsl(228.5, 77.2%, 51.5%)" stroke-width="1.5"></path>
        <path d="M90.83 530.86L90.83 530.86" stroke="hsl(228.5, 77.2%, 51.5%)" stroke-width="1.5"></path>
        <path d="M90.83 530.86L215.33 524.02" stroke="hsl(228.5, 77.2%, 51.5%)" stroke-width="1.5"></path>
        <path d="M90.83 530.86L105.55 700.52" stroke="hsl(228.5, 77.2%, 51.5%)" stroke-width="1.5"></path>
        <path d="M90.83 530.86L211.59 668.08" stroke="hsl(228.5, 77.2%, 51.5%)" stroke-width="1.5"></path>
        <path d="M105.55 700.52L105.55 700.52" stroke="hsl(228.5, 77.2%, 51.5%)" stroke-width="1.5"></path>
        <path d="M105.55 700.52L211.59 668.08" stroke="hsl(228.5, 77.2%, 51.5%)" stroke-width="1.5"></path>
        <path d="M105.55 700.52L215.33 524.02" stroke="hsl(228.5, 77.2%, 51.5%)" stroke-width="1.5"></path>
        <path d="M215.33 524.02L215.33 524.02" stroke="hsl(228.5, 77.2%, 51.5%)" stroke-width="1.5"></path>
        <path d="M215.33 524.02L347.76 523.64" stroke="hsl(228.5, 77.2%, 51.5%)" stroke-width="1.5"></path>
        <path d="M211.59 668.08L211.59 668.08" stroke="hsl(228.5, 77.2%, 51.5%)" stroke-width="1.5"></path>
        <path d="M211.59 668.08L215.33 524.02" stroke="hsl(228.5, 77.2%, 51.5%)" stroke-width="1.5"></path>
        <path d="M347.76 523.64L347.76 523.64" stroke="hsl(228.5, 77.2%, 51.5%)" stroke-width="1.5"></path>
        <path d="M347.76 523.64L396.05 658.26" stroke="hsl(228.5, 77.2%, 51.5%)" stroke-width="1.5"></path>
        <path d="M347.76 523.64L498.38 643.81" stroke="hsl(228.5, 77.2%, 51.5%)" stroke-width="1.5"></path>
        <path d="M347.76 523.64L211.59 668.08" stroke="hsl(228.5, 77.2%, 51.5%)" stroke-width="1.5"></path>
        <path d="M347.76 523.64L550.35 542.51" stroke="hsl(228.5, 77.2%, 51.5%)" stroke-width="1.5"></path>
        <path d="M396.05 658.26L396.05 658.26" stroke="hsl(228.5, 77.2%, 51.5%)" stroke-width="1.5"></path>
        <path d="M396.05 658.26L498.38 643.81" stroke="hsl(228.5, 77.2%, 51.5%)" stroke-width="1.5"></path>
        <path d="M396.05 658.26L211.59 668.08" stroke="hsl(228.5, 77.2%, 51.5%)" stroke-width="1.5"></path>
        <path d="M396.05 658.26L550.35 542.51" stroke="hsl(228.5, 77.2%, 51.5%)" stroke-width="1.5"></path>
        <path d="M396.05 658.26L215.33 524.02" stroke="hsl(228.5, 77.2%, 51.5%)" stroke-width="1.5"></path>
        <path d="M543.53 405.44L543.53 405.44" stroke="hsl(228.5, 77.2%, 51.5%)" stroke-width="1.5"></path>
        <path d="M543.53 405.44L550.35 542.51" stroke="hsl(228.5, 77.2%, 51.5%)" stroke-width="1.5"></path>
        <path d="M543.53 405.44L664.78 530.74" stroke="hsl(228.5, 77.2%, 51.5%)" stroke-width="1.5"></path>
        <path d="M543.53 405.44L347.76 523.64" stroke="hsl(228.5, 77.2%, 51.5%)" stroke-width="1.5"></path>
        <path d="M550.35 542.51L550.35 542.51" stroke="hsl(228.5, 77.2%, 51.5%)" stroke-width="1.5"></path>
        <path d="M550.35 542.51L498.38 643.81" stroke="hsl(228.5, 77.2%, 51.5%)" stroke-width="1.5"></path>
        <path d="M550.35 542.51L664.78 530.74" stroke="hsl(228.5, 77.2%, 51.5%)" stroke-width="1.5"></path>
        <path d="M498.38 643.81L498.38 643.81" stroke="hsl(228.5, 77.2%, 51.5%)" stroke-width="1.5"></path>
        <path d="M664.78 530.74L664.78 530.74" stroke="hsl(228.5, 77.2%, 51.5%)" stroke-width="1.5"></path>
        <path d="M664.78 530.74L498.38 643.81" stroke="hsl(228.5, 77.2%, 51.5%)" stroke-width="1.5"></path>
        <path d="M664.78 530.74L843.33 639.42" stroke="hsl(228.5, 77.2%, 51.5%)" stroke-width="1.5"></path>
        <path d="M845.71 384.18L845.71 384.18" stroke="hsl(228.5, 77.2%, 51.5%)" stroke-width="1.5"></path>
        <path d="M845.71 384.18L979.75 411.33" stroke="hsl(228.5, 77.2%, 51.5%)" stroke-width="1.5"></path>
        <path d="M845.71 384.18L993.84 488.85" stroke="hsl(228.5, 77.2%, 51.5%)" stroke-width="1.5"></path>
        <path d="M843.33 639.42L843.33 639.42" stroke="hsl(228.5, 77.2%, 51.5%)" stroke-width="1.5"></path>
        <path d="M843.33 639.42L982.39 653.56" stroke="hsl(228.5, 77.2%, 51.5%)" stroke-width="1.5"></path>
        <path d="M843.33 639.42L993.84 488.85" stroke="hsl(228.5, 77.2%, 51.5%)" stroke-width="1.5"></path>
        <path d="M843.33 639.42L845.71 384.18" stroke="hsl(228.5, 77.2%, 51.5%)" stroke-width="1.5"></path>
        <path d="M843.33 639.42L979.75 411.33" stroke="hsl(228.5, 77.2%, 51.5%)" stroke-width="1.5"></path>
        <path d="M1012.05 239.1L1012.05 239.1" stroke="hsl(228.5, 77.2%, 51.5%)" stroke-width="1.5"></path>
        <path d="M1012.05 239.1L1126.45 221.56" stroke="hsl(228.5, 77.2%, 51.5%)" stroke-width="1.5"></path>
        <path d="M1012.05 239.1L979.75 411.33" stroke="hsl(228.5, 77.2%, 51.5%)" stroke-width="1.5"></path>
        <path d="M1012.05 239.1L1101.9 400.97" stroke="hsl(228.5, 77.2%, 51.5%)" stroke-width="1.5"></path>
        <path d="M1012.05 239.1L845.71 384.18" stroke="hsl(228.5, 77.2%, 51.5%)" stroke-width="1.5"></path>
        <path d="M1012.05 239.1L993.84 488.85" stroke="hsl(228.5, 77.2%, 51.5%)" stroke-width="1.5"></path>
        <path d="M1012.05 239.1L1242.31 357.49" stroke="hsl(228.5, 77.2%, 51.5%)" stroke-width="1.5"></path>
        <path d="M979.75 411.33L979.75 411.33" stroke="hsl(228.5, 77.2%, 51.5%)" stroke-width="1.5"></path>
        <path d="M982.39 653.56L982.39 653.56" stroke="hsl(228.5, 77.2%, 51.5%)" stroke-width="1.5"></path>
        <path d="M982.39 653.56L993.84 488.85" stroke="hsl(228.5, 77.2%, 51.5%)" stroke-width="1.5"></path>
        <path d="M982.39 653.56L1153.04 697.06" stroke="hsl(228.5, 77.2%, 51.5%)" stroke-width="1.5"></path>
        <path d="M982.39 653.56L979.75 411.33" stroke="hsl(228.5, 77.2%, 51.5%)" stroke-width="1.5"></path>
        <path d="M982.39 653.56L1253.06 644.28" stroke="hsl(228.5, 77.2%, 51.5%)" stroke-width="1.5"></path>
        <path d="M1126.45 221.56L1126.45 221.56" stroke="hsl(228.5, 77.2%, 51.5%)" stroke-width="1.5"></path>
        <path d="M1126.45 221.56L1242.31 357.49" stroke="hsl(228.5, 77.2%, 51.5%)" stroke-width="1.5"></path>
        <path d="M1126.45 221.56L1101.9 400.97" stroke="hsl(228.5, 77.2%, 51.5%)" stroke-width="1.5"></path>
        <path d="M1153.04 697.06L1153.04 697.06" stroke="hsl(228.5, 77.2%, 51.5%)" stroke-width="1.5"></path>
        <path d="M1153.04 697.06L1253.06 644.28" stroke="hsl(228.5, 77.2%, 51.5%)" stroke-width="1.5"></path>
        <path d="M1153.04 697.06L1091.7 498.45" stroke="hsl(228.5, 77.2%, 51.5%)" stroke-width="1.5"></path>
        <path d="M1153.04 697.06L1245.21 505.92" stroke="hsl(228.5, 77.2%, 51.5%)" stroke-width="1.5"></path>
        <path d="M1250.3 -57.69L1250.3 -57.69" stroke="hsl(228.5, 77.2%, 51.5%)" stroke-width="1.5"></path>
        <path d="M1250.3 -57.69L1286.56 45.65" stroke="hsl(228.5, 77.2%, 51.5%)" stroke-width="1.5"></path>
        <path d="M1250.3 -57.69L1441.46 69.66" stroke="hsl(228.5, 77.2%, 51.5%)" stroke-width="1.5"></path>
        <path d="M1250.3 -57.69L1126.45 221.56" stroke="hsl(228.5, 77.2%, 51.5%)" stroke-width="1.5"></path>
        <path d="M1250.3 -57.69L1456.56 190.04" stroke="hsl(228.5, 77.2%, 51.5%)" stroke-width="1.5"></path>
        <path d="M1250.3 -57.69L1568.6 84.95" stroke="hsl(228.5, 77.2%, 51.5%)" stroke-width="1.5"></path>
        <path d="M1286.56 45.65L1286.56 45.65" stroke="hsl(228.5, 77.2%, 51.5%)" stroke-width="1.5"></path>
        <path d="M1286.56 45.65L1441.46 69.66" stroke="hsl(228.5, 77.2%, 51.5%)" stroke-width="1.5"></path>
        <path d="M1286.56 45.65L1456.56 190.04" stroke="hsl(228.5, 77.2%, 51.5%)" stroke-width="1.5"></path>
        <path d="M1286.56 45.65L1126.45 221.56" stroke="hsl(228.5, 77.2%, 51.5%)" stroke-width="1.5"></path>
        <path d="M1286.56 45.65L1568.6 84.95" stroke="hsl(228.5, 77.2%, 51.5%)" stroke-width="1.5"></path>
        <path d="M1286.56 45.65L1242.31 357.49" stroke="hsl(228.5, 77.2%, 51.5%)" stroke-width="1.5"></path>
        <path d="M1242.31 357.49L1242.31 357.49" stroke="hsl(228.5, 77.2%, 51.5%)" stroke-width="1.5"></path>
        <path d="M1242.31 357.49L1101.9 400.97" stroke="hsl(228.5, 77.2%, 51.5%)" stroke-width="1.5"></path>
        <path d="M1242.31 357.49L1439.38 362.74" stroke="hsl(228.5, 77.2%, 51.5%)" stroke-width="1.5"></path>
        <path d="M1253.06 644.28L1253.06 644.28" stroke="hsl(228.5, 77.2%, 51.5%)" stroke-width="1.5"></path>
        <path d="M1441.46 69.66L1441.46 69.66" stroke="hsl(228.5, 77.2%, 51.5%)" stroke-width="1.5"></path>
        <path d="M1441.46 69.66L1456.56 190.04" stroke="hsl(228.5, 77.2%, 51.5%)" stroke-width="1.5"></path>
        <path d="M1441.46 69.66L1568.6 84.95" stroke="hsl(228.5, 77.2%, 51.5%)" stroke-width="1.5"></path>
        <path d="M1441.46 69.66L1552.11 241.94" stroke="hsl(228.5, 77.2%, 51.5%)" stroke-width="1.5"></path>
        <path d="M1456.56 190.04L1456.56 190.04" stroke="hsl(228.5, 77.2%, 51.5%)" stroke-width="1.5"></path>
        <path d="M1456.56 190.04L1552.11 241.94" stroke="hsl(228.5, 77.2%, 51.5%)" stroke-width="1.5"></path>
        <path d="M1456.56 190.04L1568.6 84.95" stroke="hsl(228.5, 77.2%, 51.5%)" stroke-width="1.5"></path>
        <path d="M1456.56 190.04L1439.38 362.74" stroke="hsl(228.5, 77.2%, 51.5%)" stroke-width="1.5"></path>
        <path d="M1456.56 190.04L1596.9 352.61" stroke="hsl(228.5, 77.2%, 51.5%)" stroke-width="1.5"></path>
        <path d="M1439.38 362.74L1439.38 362.74" stroke="hsl(228.5, 77.2%, 51.5%)" stroke-width="1.5"></path>
        <path d="M1439.38 362.74L1596.9 352.61" stroke="hsl(228.5, 77.2%, 51.5%)" stroke-width="1.5"></path>
        <path d="M1439.38 362.74L1552.11 241.94" stroke="hsl(228.5, 77.2%, 51.5%)" stroke-width="1.5"></path>
        <path d="M1439.38 362.74L1544.29 560.65" stroke="hsl(228.5, 77.2%, 51.5%)" stroke-width="1.5"></path>
        <path d="M1417.96 661.04L1417.96 661.04" stroke="hsl(228.5, 77.2%, 51.5%)" stroke-width="1.5"></path>
        <path d="M1417.96 661.04L1400.87 504.77" stroke="hsl(228.5, 77.2%, 51.5%)" stroke-width="1.5"></path>
        <path d="M1417.96 661.04L1544.29 560.65" stroke="hsl(228.5, 77.2%, 51.5%)" stroke-width="1.5"></path>
        <path d="M1417.96 661.04L1253.06 644.28" stroke="hsl(228.5, 77.2%, 51.5%)" stroke-width="1.5"></path>
        <path d="M1568.6 84.95L1568.6 84.95" stroke="hsl(228.5, 77.2%, 51.5%)" stroke-width="1.5"></path>
        <path d="M1568.6 84.95L1552.11 241.94" stroke="hsl(228.5, 77.2%, 51.5%)" stroke-width="1.5"></path>
        <path d="M1552.11 241.94L1552.11 241.94" stroke="hsl(228.5, 77.2%, 51.5%)" stroke-width="1.5"></path>
        <path d="M1552.11 241.94L1596.9 352.61" stroke="hsl(228.5, 77.2%, 51.5%)" stroke-width="1.5"></path>
        <path d="M1596.9 352.61L1596.9 352.61" stroke="hsl(228.5, 77.2%, 51.5%)" stroke-width="1.5"></path>
        <path d="M1586.76 670.33L1586.76 670.33" stroke="hsl(228.5, 77.2%, 51.5%)" stroke-width="1.5"></path>
        <path d="M1586.76 670.33L1417.96 661.04" stroke="hsl(228.5, 77.2%, 51.5%)" stroke-width="1.5"></path>
        <path d="M1586.76 670.33L1400.87 504.77" stroke="hsl(228.5, 77.2%, 51.5%)" stroke-width="1.5"></path>
        <path d="M1586.76 670.33L1596.9 352.61" stroke="hsl(228.5, 77.2%, 51.5%)" stroke-width="1.5"></path>
        <path d="M1586.76 670.33L1253.06 644.28" stroke="hsl(228.5, 77.2%, 51.5%)" stroke-width="1.5"></path>
        <path d="M1586.76 670.33L1439.38 362.74" stroke="hsl(228.5, 77.2%, 51.5%)" stroke-width="1.5"></path>
        <circle r="25" cx="692.03" cy="645.89" fill="url(&quot;#SvgjsRadialGradient1001&quot;)"></circle>
        <circle r="25" cx="993.84" cy="488.85" fill="url(&quot;#SvgjsRadialGradient1001&quot;)"></circle>
        <circle r="25" cx="1101.9" cy="400.97" fill="url(&quot;#SvgjsRadialGradient1001&quot;)"></circle>
        <circle r="25" cx="1091.7" cy="498.45" fill="url(&quot;#SvgjsRadialGradient1001&quot;)"></circle>
        <circle r="25" cx="1245.21" cy="505.92" fill="url(&quot;#SvgjsRadialGradient1001&quot;)"></circle>
        <circle r="25" cx="1400.87" cy="504.77" fill="url(&quot;#SvgjsRadialGradient1001&quot;)"></circle>
        <circle r="25" cx="1599.48" cy="-72.08" fill="url(&quot;#SvgjsRadialGradient1001&quot;)"></circle>
        <circle r="25" cx="1544.29" cy="560.65" fill="url(&quot;#SvgjsRadialGradient1001&quot;)"></circle>
        <circle r="5" cx="-94.45" cy="516.4" fill="#8b9ad9"></circle>
        <circle r="5" cx="-54.09" cy="684.13" fill="#8b9ad9"></circle>
        <circle r="5" cx="90.83" cy="530.86" fill="#8b9ad9"></circle>
        <circle r="5" cx="105.55" cy="700.52" fill="#8b9ad9"></circle>
        <circle r="5" cx="215.33" cy="524.02" fill="#8b9ad9"></circle>
        <circle r="5" cx="211.59" cy="668.08" fill="#8b9ad9"></circle>
        <circle r="5" cx="347.76" cy="523.64" fill="#8b9ad9"></circle>
        <circle r="5" cx="396.05" cy="658.26" fill="#8b9ad9"></circle>
        <circle r="5" cx="543.53" cy="405.44" fill="#8b9ad9"></circle>
        <circle r="5" cx="550.35" cy="542.51" fill="#8b9ad9"></circle>
        <circle r="5" cx="498.38" cy="643.81" fill="#8b9ad9"></circle>
        <circle r="5" cx="664.78" cy="530.74" fill="#8b9ad9"></circle>
        <circle r="5" cx="845.71" cy="384.18" fill="#8b9ad9"></circle>
        <circle r="5" cx="843.33" cy="639.42" fill="#8b9ad9"></circle>
        <circle r="5" cx="1012.05" cy="239.1" fill="#8b9ad9"></circle>
        <circle r="5" cx="979.75" cy="411.33" fill="#8b9ad9"></circle>
        <circle r="5" cx="982.39" cy="653.56" fill="#8b9ad9"></circle>
        <circle r="5" cx="1126.45" cy="221.56" fill="#8b9ad9"></circle>
        <circle r="5" cx="1153.04" cy="697.06" fill="#8b9ad9"></circle>
        <circle r="5" cx="1250.3" cy="-57.69" fill="#8b9ad9"></circle>
        <circle r="5" cx="1286.56" cy="45.65" fill="#8b9ad9"></circle>
        <circle r="5" cx="1242.31" cy="357.49" fill="#8b9ad9"></circle>
        <circle r="5" cx="1253.06" cy="644.28" fill="#8b9ad9"></circle>
        <circle r="5" cx="1441.46" cy="69.66" fill="#8b9ad9"></circle>
        <circle r="5" cx="1456.56" cy="190.04" fill="#8b9ad9"></circle>
        <circle r="5" cx="1439.38" cy="362.74" fill="#8b9ad9"></circle>
        <circle r="5" cx="1417.96" cy="661.04" fill="#8b9ad9"></circle>
        <circle r="5" cx="1568.6" cy="84.95" fill="#8b9ad9"></circle>
        <circle r="5" cx="1552.11" cy="241.94" fill="#8b9ad9"></circle>
        <circle r="5" cx="1596.9" cy="352.61" fill="#8b9ad9"></circle>
        <circle r="5" cx="1586.76" cy="670.33" fill="#8b9ad9"></circle>
    </g>
    <defs>
        <mask id="SvgjsMask1000">
            <rect width="1440" height="560" fill="#ffffff"></rect>
        </mask>
        <radialGradient id="SvgjsRadialGradient1001">
            <stop stop-color="#ffffff" offset="0.1"></stop>
            <stop stop-color="#1735b3" offset="0.2"></stop>
            <stop stop-color="rgba(23, 53, 179, 0)" offset="1"></stop>
        </radialGradient>
    </defs>
</svg>